<?xml version="1.0" encoding="utf-8"?>
<!-- Generator: Adobe Illustrator 23.0.1, SVG Export Plug-In . SVG Version: 6.00 Build 0)  -->
<svg version="1.1" id="Calque_1" xmlns="http://www.w3.org/2000/svg" xmlns:xlink="http://www.w3.org/1999/xlink" x="0px" y="0px"
	 viewBox="0 0 24 24" style="enable-background:new 0 0 24 24;" xml:space="preserve">
<style type="text/css">
	.st0{fill:#1C94FA;}
</style>
<path class="st0" d="M22,14.2v3.5l-2-1v-1.5L22,14.2z M24,11l-6,3v4l6,3V11z M14,13v5.5c0,0.3-0.2,0.5-0.5,0.5h-9
	C4.2,19,4,18.8,4,18.5V13c-0.7,0-1.4-0.1-2-0.4V19c0,1.1,0.9,2,2,2h10c1.1,0,2-0.9,2-2v-6.4C15.4,12.9,14.7,13,14,13z M14,5
	c1.1,0,2,0.9,2,2s-0.9,2-2,2s-2-0.9-2-2S12.9,5,14,5z M4,5c1.1,0,2,0.9,2,2S5.1,9,4,9S2,8.1,2,7S2.9,5,4,5z M14,3c-2.2,0-4,1.8-4,4
	s1.8,4,4,4s4-1.8,4-4S16.2,3,14,3z M4,3C1.8,3,0,4.8,0,7s1.8,4,4,4s4-1.8,4-4S6.2,3,4,3z"/>
</svg>
