<?xml version="1.0" encoding="utf-8"?>
<!-- Generator: Adobe Illustrator 23.0.1, SVG Export Plug-In . SVG Version: 6.00 Build 0)  -->
<svg version="1.1" id="Calque_1" xmlns="http://www.w3.org/2000/svg" xmlns:xlink="http://www.w3.org/1999/xlink" x="0px" y="0px"
	 viewBox="0 0 24 24" style="enable-background:new 0 0 24 24;" xml:space="preserve">
<style type="text/css">
	.st0{fill:#1C94FA;}
</style>
<path class="st0" d="M12,7c4.8,0,8.1,3,9.5,4.6C20.1,13.5,16.8,17,12,17c-4.4,0-7.9-3.5-9.5-5.4C4,9.9,7.4,7,12,7z M12,5
	C4.4,5,0,11.6,0,11.6S4.8,19,12,19c7.7,0,12-7.4,12-7.4S19.7,5,12,5z M12,12L8.6,9.8C8.2,10.5,8,11.2,8,12c0,2.2,1.8,4,4,4
	s4-1.8,4-4s-1.8-4-4-4c-0.7,0-1.4,0.2-2,0.6L12,12z"/>
</svg>
