<?xml version="1.0" standalone="no"?>
<!DOCTYPE svg PUBLIC "-//W3C//DTD SVG 20010904//EN"
 "http://www.w3.org/TR/2001/REC-SVG-20010904/DTD/svg10.dtd">
<svg version="1.0" xmlns="http://www.w3.org/2000/svg"
 width="1000.000000pt" height="1000.000000pt" viewBox="0 0 1000.000000 1000.000000"
 preserveAspectRatio="xMidYMid meet">
<metadata>
Created by potrace 1.11, written by Peter Selinger 2001-2013
</metadata>
<g transform="translate(0.000000,1000.000000) scale(0.100000,-0.100000)"
fill="#000000" stroke="none">
<path d="M0 5000 l0 -5000 5000 0 5000 0 0 5000 0 5000 -5000 0 -5000 0 0
-5000z m2712 2899 c152 -31 309 -149 380 -285 47 -90 55 -118 73 -247 27 -192
39 -202 250 -203 129 0 159 -4 215 -23 122 -42 232 -130 287 -228 l23 -40
-223 -243 c-122 -133 -223 -248 -225 -254 -1 -6 12 -21 29 -32 l31 -22 -119
-8 c-65 -4 -197 -8 -293 -8 l-175 -1 -70 51 c-435 316 -832 312 -1134 -12 -64
-68 -153 -195 -187 -267 -10 -20 -22 -36 -28 -34 -17 6 -65 101 -81 162 -27
106 -14 228 37 333 68 143 239 269 436 322 62 17 92 31 119 56 33 31 35 36 31
86 -2 29 -17 94 -32 143 -36 114 -41 265 -12 360 57 190 218 342 413 389 71
18 184 20 255 5z m3199 -75 c182 -57 318 -200 365 -387 21 -78 14 -207 -15
-330 -33 -133 -12 -192 81 -232 24 -10 45 -20 47 -22 2 -1 -10 -24 -27 -50
-113 -175 -155 -405 -117 -635 21 -131 20 -134 -76 -269 l-72 -101 -20 34
c-90 147 -140 214 -221 293 -137 136 -266 195 -427 195 -107 0 -237 17 -315
41 -103 31 -193 89 -291 188 -102 102 -137 124 -304 191 -68 28 -127 54 -131
58 -15 15 52 130 99 172 51 45 144 93 213 110 25 6 119 15 210 19 182 9 219
20 239 68 15 37 31 127 31 173 0 60 38 191 72 247 136 225 396 318 659 237z
m1258 -934 c196 -47 337 -172 385 -341 10 -35 26 -93 37 -129 12 -45 28 -75
49 -95 30 -29 35 -30 113 -29 45 1 130 5 189 9 93 7 115 5 175 -13 167 -51
311 -198 372 -379 32 -96 43 -217 26 -299 -67 -321 -414 -527 -722 -429 -77
24 -95 35 -261 148 -80 55 -115 67 -157 51 -21 -9 -57 -81 -85 -174 -37 -123
-75 -187 -164 -275 -138 -137 -265 -194 -446 -202 -125 -6 -197 9 -310 64 -87
42 -190 139 -232 219 -119 223 -45 529 164 677 35 25 109 68 166 96 158 79
176 132 93 270 -60 98 -82 164 -88 256 -11 162 49 308 176 436 145 145 310
189 520 139z m-2751 -385 c184 -43 310 -154 384 -337 64 -159 113 -180 284
-122 184 61 315 58 463 -13 136 -65 258 -212 296 -358 20 -77 19 -234 0 -310
-55 -210 -218 -367 -427 -411 -133 -28 -265 -4 -440 82 -178 86 -222 58 -248
-159 -6 -49 -18 -110 -27 -135 -70 -210 -240 -369 -449 -422 -94 -24 -251 -26
-343 -5 -235 56 -385 254 -385 510 0 180 74 311 254 451 58 45 115 96 128 114
43 63 25 135 -58 234 -88 106 -123 199 -121 330 1 206 128 418 301 503 119 58
267 76 388 48z m-1957 -191 c73 -22 174 -76 228 -122 l45 -39 -61 -70 c-82
-96 -118 -150 -163 -246 -63 -135 -85 -292 -60 -442 8 -52 7 -65 -11 -103 -12
-24 -33 -50 -48 -59 -285 -173 -422 -351 -482 -625 -11 -50 -24 -98 -29 -108
-27 -50 -80 -62 -202 -43 -51 7 -173 25 -270 38 -201 27 -238 41 -308 115 -78
82 -126 201 -137 337 -12 162 33 279 152 398 118 119 243 164 448 165 192 0
211 21 213 235 1 111 6 154 23 206 52 164 186 297 361 356 81 28 219 31 301 7z
m904 -249 c33 -9 65 -21 71 -28 6 -7 45 -137 87 -290 l76 -279 -72 -71 c-163
-161 -234 -322 -244 -552 -5 -109 10 -252 33 -328 5 -15 2 -17 -23 -10 -15 4
-107 7 -203 7 -197 -1 -305 -19 -486 -79 -99 -33 -248 -102 -327 -152 -21 -13
-41 -23 -43 -21 -17 17 -57 134 -66 193 -38 247 123 474 402 564 99 32 164 73
185 117 22 47 15 102 -26 215 -76 208 -34 395 126 555 149 149 330 205 510
159z m5498 -577 c146 -147 195 -312 151 -511 -21 -96 -83 -222 -138 -284 -104
-116 -221 -160 -458 -174 -277 -16 -430 -64 -569 -179 -121 -101 -150 -103
-332 -21 -73 32 -208 87 -302 121 -93 34 -174 65 -178 69 -13 12 503 493 522
487 9 -3 52 -18 96 -34 118 -43 203 -56 346 -50 104 4 138 10 211 35 163 57
293 153 399 294 55 75 141 237 154 292 4 15 11 27 17 27 5 0 41 -33 81 -72z
m-2753 -797 c129 -107 239 -197 244 -202 4 -4 -45 -38 -110 -77 -232 -136
-343 -182 -442 -182 -29 0 -89 19 -190 60 -142 57 -668 292 -679 303 -3 3 5
35 17 71 25 75 23 75 127 49 48 -12 114 -17 223 -17 133 -1 166 2 235 22 95
28 190 76 265 136 30 24 60 41 65 38 6 -4 116 -94 245 -201z m578 -483 c-81
-1023 -241 -2984 -243 -2986 -2 -2 -69 1 -151 7 -81 6 -284 16 -451 23 l-303
12 0 1388 c0 763 3 1388 6 1388 4 0 21 -9 38 -19 59 -36 152 -61 228 -61 122
0 220 35 378 135 48 30 104 62 126 71 51 22 356 132 369 133 7 1 8 -30 3 -91z
m-3049 -107 c297 -178 491 -184 709 -20 l52 40 0 -1431 0 -1430 -46 0 c-79 0
-481 -20 -704 -35 -118 -8 -217 -11 -221 -7 -3 4 -59 671 -123 1482 -65 811
-120 1501 -123 1533 l-6 57 170 -58 c137 -47 195 -73 292 -131z m-1942 63
c109 -58 237 -128 285 -155 l87 -50 10 -52 c6 -29 26 -236 46 -462 19 -225 48
-567 65 -760 39 -454 129 -1589 126 -1592 -1 -1 -78 -14 -171 -28 -94 -14
-219 -33 -278 -44 -77 -13 -110 -15 -112 -7 -2 6 -74 733 -161 1614 l-158
1604 24 19 c14 10 28 19 32 19 4 0 96 -48 205 -106z m1273 -424 c34 -391 90
-1077 181 -2252 12 -158 20 -291 16 -294 -3 -4 -106 -17 -229 -30 -123 -12
-255 -27 -295 -32 l-71 -8 -6 55 c-7 61 -120 1480 -161 2021 -14 184 -32 400
-40 479 -22 210 -20 278 8 332 13 24 41 56 63 72 21 15 138 63 259 106 l220
79 7 -36 c4 -20 25 -242 48 -492z m2173 498 l117 -22 0 -1473 0 -1473 -300 0
-300 0 1 843 c1 463 4 1117 8 1454 6 600 6 612 27 640 35 46 58 53 199 53 92
0 165 -6 248 -22z m2023 -59 c115 -44 238 -95 274 -112 61 -30 66 -35 76 -78
10 -38 0 -206 -61 -1010 -115 -1510 -139 -1820 -145 -1830 -6 -8 -598 46 -608
55 -2 3 6 121 17 263 12 142 66 812 121 1489 55 678 100 1248 100 1268 0 20 4
36 8 36 4 0 102 -36 218 -81z m1154 64 c2 -30 -295 -3189 -299 -3195 -3 -3
-107 8 -231 26 l-225 33 -3 31 c-8 79 207 2606 230 2702 33 141 131 265 259
331 93 48 268 94 269 72z"/>
</g>
</svg>
